<svg xmlns="http://www.w3.org/2000/svg" version="1.1" xlink="http://www.w3.org/1999/xlink" xmlns:svgjs="http://svgjs.com/svgjs" width="200px" height="200px" viewBox="3.935389757156372 6.250929832458496 92.1312255859375 87.49906921386719"><g fill="#65A43D"><path d="M47.926 7.04a3.123 3.123 0 0 1 4.41.26l.715.802a12.506 12.506 0 0 1 0 16.609l-1.43 1.605a6.249 6.249 0 0 0 0 8.305l.715.804a3.126 3.126 0 0 1-.258 4.41 3.127 3.127 0 0 1-4.414-.261l-.715-.8a12.506 12.506 0 0 1 0-16.61l1.43-1.605a6.249 6.249 0 0 0 0-8.305l-.715-.8a3.127 3.127 0 0 1 .262-4.415zm18.75 0a3.123 3.123 0 0 1 4.41.26l.715.802a12.506 12.506 0 0 1 0 16.609l-1.43 1.605a6.249 6.249 0 0 0 0 8.305l.715.804a3.126 3.126 0 0 1-.258 4.41 3.127 3.127 0 0 1-4.414-.261l-.715-.8a12.506 12.506 0 0 1 0-16.61l1.43-1.605a6.249 6.249 0 0 0 0-8.305l-.715-.8a3.127 3.127 0 0 1 .262-4.415zm-37.5 0a3.123 3.123 0 0 1 4.41.26l.715.802a12.506 12.506 0 0 1 0 16.609l-1.43 1.605a6.249 6.249 0 0 0 0 8.305l.715.804a3.126 3.126 0 0 1-.258 4.41 3.127 3.127 0 0 1-4.414-.261l-.715-.8a12.506 12.506 0 0 1 0-16.61l1.43-1.605a6.249 6.249 0 0 0 0-8.305l-.715-.8a3.127 3.127 0 0 1 .262-4.415zM15.625 50c-3.688 0-5.902 2.871-5.328 5.52C14.257 73.803 30.53 87.5 50 87.5s35.742-13.696 39.703-31.98c.574-2.649-1.64-5.52-5.328-5.52H39.063a3.124 3.124 0 1 1 0-6.25h45.312c6.668 0 13.055 5.625 11.438 13.094C91.243 77.942 72.469 93.75 50 93.75S8.759 77.941 4.189 56.844C2.572 49.375 8.959 43.75 15.627 43.75h7.812a3.124 3.124 0 1 1 0 6.25z"></path><path d="M79.23 60.707A3.12 3.12 0 0 1 80.277 65c-2.266 3.73-5.246 6.86-8.688 9.168a3.125 3.125 0 0 1-3.48-5.191c2.66-1.782 5.016-4.239 6.828-7.223a3.122 3.122 0 0 1 4.293-1.047z"></path></g></svg>